<svg xmlns="http://www.w3.org/2000/svg" viewBox="0 0 64 64" width="64" height="64" role="img" aria-label="umbra">
  <title>umbra</title>
  <desc>Four uneven strips laid over a lit opening, with a pair of slits cut into the deepest one.</desc>
  <defs><clipPath id="form"><path d="M19.5 20 H44.5 L50.5 26 V38 L44.5 44 H19.5 L13.5 38 V26 Z"/></clipPath></defs>
  <rect width="64" height="64" fill="#080711"/>


  <path d="M19.5 20 H44.5 L50.5 26 V38 L44.5 44 H19.5 L13.5 38 V26 Z" fill="#6a3bf2"/>
  <g clip-path="url(#form)"><rect x="11.5" y="37.5" width="41" height="9" fill="#080711"/><rect x="13.5" y="39.5" width="37" height="5" fill="#fb6e00"/><rect x="44.5" y="18" width="8" height="28.5" fill="#080711"/><rect x="46.5" y="20" width="4" height="24.5" fill="#fb6e00"/><rect x="11.5" y="18" width="41" height="12" fill="#080711"/><rect x="13.5" y="20" width="37" height="8" fill="#fb6e00"/><rect x="11.5" y="18" width="11.5" height="28.5" fill="#080711"/><rect x="13.5" y="20" width="7.5" height="24.5" fill="#fb6e00"/><path d="M24 23 H29 L31 25 H24 Z" fill="#080711"/><path d="M40 23 H35 L33 25 H40 Z" fill="#080711"/></g>
</svg>
